{
  "accessors": [
    {
      "bufferView": 2,
      "componentType": 5126,
      "count": 3680,
      "max": [
        17.67474937438965,
        6.627358913421631,
        14.550350189208984
      ],
      "min": [
        -9.727034568786621,
        -6.339469909667969,
        -0.028519999235868454
      ],
      "type": "VEC3"
    },
    {
      "bufferView": 2,
      "byteOffset": 44160,
      "componentType": 5126,
      "count": 3680,
      "max": [
        0.9982309937477112,
        0.9982422590255737,
        1.0
      ],
      "min": [
        -0.9982309937477112,
        -0.9982422590255737,
        -1.0
      ],
      "type": "VEC3"
    },
    {
      "bufferView": 3,
      "componentType": 5126,
      "count": 3680,
      "max": [
        0.9997705221176147,
        0.9999717473983765,
        0.9971575140953064,
        1.0
      ],
      "min": [
        -0.9947225451469421,
        -0.9997017979621887,
        -0.9999998807907104,
        1.0
      ],
      "type": "VEC4"
    },
    {
      "bufferView": 1,
      "componentType": 5126,
      "count": 3680,
      "max": [
        0.9950010180473328,
        1.0
      ],
      "min": [
        0.0,
        0.0
      ],
      "type": "VEC2"
    },
    {
      "bufferView": 0,
      "componentType": 5125,
      "count": 6840,
      "type": "SCALAR"
    }
  ],
  "asset": {
    "extras": {
      "author": "CurlyFryWhy (https://sketchfab.com/CurlyFryWhy)",
      "license": "CC-BY-4.0 (http://creativecommons.org/licenses/by/4.0/)",
      "source": "https://sketchfab.com/3d-models/antique-wooden-milk-crates-489a6f095dc44bb1b279ed58e5bb3571",
      "title": "Antique Wooden Milk Crates"
    },
    "generator": "Sketchfab-15.44.0",
    "version": "2.0"
  },
  "bufferViews": [
    {
      "buffer": 0,
      "byteLength": 27360,
      "name": "floatBufferViews",
      "target": 34963
    },
    {
      "buffer": 0,
      "byteLength": 29440,
      "byteOffset": 27360,
      "byteStride": 8,
      "name": "floatBufferViews",
      "target": 34962
    },
    {
      "buffer": 0,
      "byteLength": 88320,
      "byteOffset": 56800,
      "byteStride": 12,
      "name": "floatBufferViews",
      "target": 34962
    },
    {
      "buffer": 0,
      "byteLength": 58880,
      "byteOffset": 145120,
      "byteStride": 16,
      "name": "floatBufferViews",
      "target": 34962
    }
  ],
  "buffers": [
    {
      "byteLength": 204000,
      "uri": "scene.bin"
    }
  ],
  "images": [
    {
      "uri": "textures/aiStandardSurface1SG_baseColor.png"
    },
    {
      "uri": "textures/aiStandardSurface1SG_metallicRoughness.png"
    },
    {
      "uri": "textures/aiStandardSurface1SG_normal.png"
    }
  ],
  "materials": [
    {
      "doubleSided": true,
      "name": "aiStandardSurface1SG",
      "normalTexture": {
        "index": 2
      },
      "pbrMetallicRoughness": {
        "baseColorTexture": {
          "index": 0
        },
        "metallicRoughnessTexture": {
          "index": 1
        }
      }
    }
  ],
  "meshes": [
    {
      "name": "Object_0",
      "primitives": [
        {
          "attributes": {
            "NORMAL": 1,
            "POSITION": 0,
            "TANGENT": 2,
            "TEXCOORD_0": 3
          },
          "indices": 4,
          "material": 0,
          "mode": 4
        }
      ]
    }
  ],
  "nodes": [
    {
      "children": [
        1
      ],
      "matrix": [
        1.0,
        0.0,
        0.0,
        0.0,
        0.0,
        2.220446049250313e-16,
        -1.0,
        0.0,
        0.0,
        1.0,
        2.220446049250313e-16,
        0.0,
        0.0,
        0.0,
        0.0,
        1.0
      ],
      "name": "Sketchfab_model"
    },
    {
      "children": [
        2
      ],
      "name": "MilkCratesSketchfab.obj.cleaner.materialmerger.gles"
    },
    {
      "mesh": 0,
      "name": "Object_2"
    }
  ],
  "samplers": [
    {
      "magFilter": 9729,
      "minFilter": 9987,
      "wrapS": 10497,
      "wrapT": 10497
    }
  ],
  "scene": 0,
  "scenes": [
    {
      "name": "Sketchfab_Scene",
      "nodes": [
        0
      ]
    }
  ],
  "textures": [
    {
      "sampler": 0,
      "source": 0
    },
    {
      "sampler": 0,
      "source": 1
    },
    {
      "sampler": 0,
      "source": 2
    }
  ]
}
